<svg xmlns="http://www.w3.org/2000/svg" width="210" height="291"><path d="M111,141L97,139L96,162Z" fill="#7dccc4" stroke="#7dccc4" stroke-width="1.51"/><path d="M96,162L118,156L111,141Z" fill="#77c9c6" stroke="#77c9c6" stroke-width="1.51"/><path d="M96,162L110,174L118,156Z" fill="#72c6c8" stroke="#72c6c8" stroke-width="1.51"/><path d="M69,157L88,170L96,162Z" fill="#83ccc3" stroke="#83ccc3" stroke-width="1.51"/><path d="M88,170L110,174L96,162Z" fill="#77c7c7" stroke="#77c7c7" stroke-width="1.51"/><path d="M97,139L79,136L96,162Z" fill="#85cfc1" stroke="#85cfc1" stroke-width="1.51"/><path d="M95,114L79,136L97,139Z" fill="#8ed2bf" stroke="#8ed2bf" stroke-width="1.51"/><path d="M79,136L69,157L96,162Z" fill="#89d0c0" stroke="#89d0c0" stroke-width="1.51"/><path d="M118,156L139,149L111,141Z" fill="#70c4c9" stroke="#70c4c9" stroke-width="1.51"/><path d="M132,177L139,149L118,156Z" fill="#66bfcc" stroke="#66bfcc" stroke-width="1.51"/><path d="M109,113L95,114L97,139Z" fill="#8bd1bf" stroke="#8bd1bf" stroke-width="1.51"/><path d="M109,113L97,139L111,141Z" fill="#83cec2" stroke="#83cec2" stroke-width="1.51"/><path d="M141,134L109,113L111,141Z" fill="#7cc9c5" stroke="#7cc9c5" stroke-width="1.51"/><path d="M110,174L132,177L118,156Z" fill="#69c0cb" stroke="#69c0cb" stroke-width="1.51"/><path d="M110,174L110,191L132,177Z" fill="#65becd" stroke="#65becd" stroke-width="1.51"/><path d="M95,193L110,191L110,174Z" fill="#6ac1cb" stroke="#6ac1cb" stroke-width="1.51"/><path d="M95,193L110,174L88,170Z" fill="#73c4c8" stroke="#73c4c8" stroke-width="1.51"/><path d="M95,114L76,119L79,136Z" fill="#96d5bc" stroke="#96d5bc" stroke-width="1.51"/><path d="M51,130L49,152L69,157Z" fill="#99d7c0" stroke="#99d7c0" stroke-width="1.51"/><path d="M139,149L141,134L111,141Z" fill="#70c4c9" stroke="#70c4c9" stroke-width="1.51"/><path d="M69,182L95,193L88,170Z" fill="#7cc7c6" stroke="#7cc7c6" stroke-width="1.51"/><path d="M69,157L69,182L88,170Z" fill="#87ccc2" stroke="#87ccc2" stroke-width="1.51"/><path d="M110,191L133,190L132,177Z" fill="#5dbacf" stroke="#5dbacf" stroke-width="1.51"/><path d="M153,182L160,152L139,149Z" fill="#5cb5cb" stroke="#5cb5cb" stroke-width="1.51"/><path d="M116,222L133,190L110,191Z" fill="#5bb6cd" stroke="#5bb6cd" stroke-width="1.51"/><path d="M141,134L137,112L109,113Z" fill="#7dc8c5" stroke="#7dc8c5" stroke-width="1.51"/><path d="M69,157L48,181L69,182Z" fill="#8dcec3" stroke="#8dcec3" stroke-width="1.51"/><path d="M51,130L69,157L79,136Z" fill="#97d6bd" stroke="#97d6bd" stroke-width="1.51"/><path d="M95,114L75,97L76,119Z" fill="#9cd8b9" stroke="#9cd8b9" stroke-width="1.51"/><path d="M109,113L100,96L95,114Z" fill="#91d4be" stroke="#91d4be" stroke-width="1.51"/><path d="M109,94L100,96L109,113Z" fill="#92d4bd" stroke="#92d4bd" stroke-width="1.51"/><path d="M76,119L51,130L79,136Z" fill="#9bd7ba" stroke="#9bd7ba" stroke-width="1.51"/><path d="M49,116L51,130L76,119Z" fill="#a4dbbb" stroke="#a4dbbb" stroke-width="1.51"/><path d="M137,112L109,94L109,113Z" fill="#8acfc1" stroke="#8acfc1" stroke-width="1.51"/><path d="M153,182L139,149L132,177Z" fill="#5ab8d0" stroke="#5ab8d0" stroke-width="1.51"/><path d="M139,149L160,152L141,134Z" fill="#66bcca" stroke="#66bcca" stroke-width="1.51"/><path d="M141,134L161,113L137,112Z" fill="#76c1c6" stroke="#76c1c6" stroke-width="1.51"/><path d="M69,182L71,199L95,193Z" fill="#7dc6c6" stroke="#7dc6c6" stroke-width="1.51"/><path d="M95,193L91,210L110,191Z" fill="#6bbec9" stroke="#6bbec9" stroke-width="1.51"/><path d="M56,201L71,199L69,182Z" fill="#84c8c5" stroke="#84c8c5" stroke-width="1.51"/><path d="M133,190L153,182L132,177Z" fill="#54b5d1" stroke="#54b5d1" stroke-width="1.51"/><path d="M71,199L91,210L95,193Z" fill="#75c0c6" stroke="#75c0c6" stroke-width="1.51"/><path d="M133,190L156,192L153,182Z" fill="#4db0d1" stroke="#4db0d1" stroke-width="1.51"/><path d="M100,96L75,97L95,114Z" fill="#9bd7ba" stroke="#9bd7ba" stroke-width="1.51"/><path d="M60,94L75,97L77,68Z" fill="#addfb8" stroke="#addfb8" stroke-width="1.51"/><path d="M160,152L161,131L141,134Z" fill="#67b9c7" stroke="#67b9c7" stroke-width="1.51"/><path d="M49,152L48,181L69,157Z" fill="#94d2c3" stroke="#94d2c3" stroke-width="1.51"/><path d="M51,130L36,135L49,152Z" fill="#a3dac1" stroke="#a3dac1" stroke-width="1.51"/><path d="M49,152L36,172L48,181Z" fill="#98d3c6" stroke="#98d3c6" stroke-width="1.51"/><path d="M60,94L49,116L76,119Z" fill="#a8dcb8" stroke="#a8dcb8" stroke-width="1.51"/><path d="M137,112L142,98L109,94Z" fill="#87cbc2" stroke="#87cbc2" stroke-width="1.51"/><path d="M161,113L142,98L137,112Z" fill="#7cc3c4" stroke="#7cc3c4" stroke-width="1.51"/><path d="M153,182L172,160L160,152Z" fill="#56aec9" stroke="#56aec9" stroke-width="1.51"/><path d="M137,216L156,192L133,190Z" fill="#4baed0" stroke="#4baed0" stroke-width="1.51"/><path d="M49,116L36,135L51,130Z" fill="#a8dcbf" stroke="#a8dcbf" stroke-width="1.51"/><path d="M71,199L78,218L91,210Z" fill="#77bdc3" stroke="#77bdc3" stroke-width="1.51"/><path d="M48,181L56,201L69,182Z" fill="#8acbc7" stroke="#8acbc7" stroke-width="1.51"/><path d="M161,131L161,113L141,134Z" fill="#6fbbc5" stroke="#6fbbc5" stroke-width="1.51"/><path d="M32,153L36,172L49,152Z" fill="#9fd7c6" stroke="#9fd7c6" stroke-width="1.51"/><path d="M48,181L29,195L56,201Z" fill="#90ccca" stroke="#90ccca" stroke-width="1.51"/><path d="M160,152L178,135L161,131Z" fill="#62b2c3" stroke="#62b2c3" stroke-width="1.51"/><path d="M161,131L173,120L161,113Z" fill="#6eb6c1" stroke="#6eb6c1" stroke-width="1.51"/><path d="M173,176L172,160L153,182Z" fill="#4faac9" stroke="#4faac9" stroke-width="1.51"/><path d="M36,135L32,153L49,152Z" fill="#a3dac4" stroke="#a3dac4" stroke-width="1.51"/><path d="M75,97L60,94L76,119Z" fill="#a6dcb6" stroke="#a6dcb6" stroke-width="1.51"/><path d="M49,116L39,112L36,135Z" fill="#addfbf" stroke="#addfbf" stroke-width="1.51"/><path d="M98,77L75,97L100,96Z" fill="#a0d9bb" stroke="#a0d9bb" stroke-width="1.51"/><path d="M58,222L78,218L71,199Z" fill="#7dbec0" stroke="#7dbec0" stroke-width="1.51"/><path d="M91,210L116,222L110,191Z" fill="#62b8c8" stroke="#62b8c8" stroke-width="1.51"/><path d="M88,242L116,222L91,210Z" fill="#63b2c3" stroke="#63b2c3" stroke-width="1.51"/><path d="M116,222L137,216L133,190Z" fill="#52afcd" stroke="#52afcd" stroke-width="1.51"/><path d="M109,94L98,77L100,96Z" fill="#99d6be" stroke="#99d6be" stroke-width="1.51"/><path d="M118,71L98,77L109,94Z" fill="#9ad6c1" stroke="#9ad6c1" stroke-width="1.51"/><path d="M60,94L39,112L49,116Z" fill="#afe0bb" stroke="#afe0bb" stroke-width="1.51"/><path d="M13,139L18,155L32,153Z" fill="#a8dcc9" stroke="#a8dcc9" stroke-width="1.51"/><path d="M173,190L173,176L153,182Z" fill="#49a7ca" stroke="#49a7ca" stroke-width="1.51"/><path d="M173,190L153,182L156,192Z" fill="#48a9cd" stroke="#48a9cd" stroke-width="1.51"/><path d="M178,135L173,120L161,131Z" fill="#68b1c1" stroke="#68b1c1" stroke-width="1.51"/><path d="M160,79L134,76L142,98Z" fill="#88c8c6" stroke="#88c8c6" stroke-width="1.51"/><path d="M178,135L160,152L172,160Z" fill="#5baec4" stroke="#5baec4" stroke-width="1.51"/><path d="M194,130L178,135L200,149Z" fill="#5ca5bd" stroke="#5ca5bd" stroke-width="1.51"/><path d="M200,149L178,135L172,160Z" fill="#57a7c0" stroke="#57a7c0" stroke-width="1.51"/><path d="M160,216L173,190L156,192Z" fill="#42a3cb" stroke="#42a3cb" stroke-width="1.51"/><path d="M142,98L134,76L109,94Z" fill="#8dcec4" stroke="#8dcec4" stroke-width="1.51"/><path d="M161,92L142,98L161,113Z" fill="#7dbfc1" stroke="#7dbfc1" stroke-width="1.51"/><path d="M134,76L118,71L109,94Z" fill="#94d2c4" stroke="#94d2c4" stroke-width="1.51"/><path d="M177,95L161,92L161,113Z" fill="#7ab9bd" stroke="#7ab9bd" stroke-width="1.51"/><path d="M88,242L119,241L116,222Z" fill="#59abc2" stroke="#59abc2" stroke-width="1.51"/><path d="M56,201L58,222L71,199Z" fill="#83c2c3" stroke="#83c2c3" stroke-width="1.51"/><path d="M38,211L58,222L56,201Z" fill="#88c2c4" stroke="#88c2c4" stroke-width="1.51"/><path d="M36,172L29,195L48,181Z" fill="#97d0ca" stroke="#97d0ca" stroke-width="1.51"/><path d="M32,153L18,155L36,172Z" fill="#a3d8c9" stroke="#a3d8c9" stroke-width="1.51"/><path d="M13,139L32,153L36,135Z" fill="#aaddc6" stroke="#aaddc6" stroke-width="1.51"/><path d="M58,222L70,230L78,218Z" fill="#7bbabd" stroke="#7bbabd" stroke-width="1.51"/><path d="M18,200L29,195L8,176Z" fill="#9bd1d1" stroke="#9bd1d1" stroke-width="1.51"/><path d="M98,77L77,68L75,97Z" fill="#a8dcbc" stroke="#a8dcbc" stroke-width="1.51"/><path d="M60,94L33,97L39,112Z" fill="#b5e2ba" stroke="#b5e2ba" stroke-width="1.51"/><path d="M77,54L77,68L93,48Z" fill="#b2e1c0" stroke="#b2e1c0" stroke-width="1.51"/><path d="M137,216L160,216L156,192Z" fill="#44a6cc" stroke="#44a6cc" stroke-width="1.51"/><path d="M151,240L160,216L137,216Z" fill="#3ea0c9" stroke="#3ea0c9" stroke-width="1.51"/><path d="M132,237L137,216L116,222Z" fill="#4da9c9" stroke="#4da9c9" stroke-width="1.51"/><path d="M11,112L13,139L36,135Z" fill="#b2e0c6" stroke="#b2e0c6" stroke-width="1.51"/><path d="M39,71L33,97L60,94Z" fill="#bae4bc" stroke="#bae4bc" stroke-width="1.51"/><path d="M29,195L38,211L56,201Z" fill="#90c8c9" stroke="#90c8c9" stroke-width="1.51"/><path d="M58,222L54,235L70,230Z" fill="#7eb8be" stroke="#7eb8be" stroke-width="1.51"/><path d="M11,112L36,135L39,112Z" fill="#b3e1c2" stroke="#b3e1c2" stroke-width="1.51"/><path d="M8,176L29,195L36,172Z" fill="#9cd3ce" stroke="#9cd3ce" stroke-width="1.51"/><path d="M119,241L132,237L116,222Z" fill="#4fa7c6" stroke="#4fa7c6" stroke-width="1.51"/><path d="M88,242L91,210L78,218Z" fill="#6eb6c1" stroke="#6eb6c1" stroke-width="1.51"/><path d="M161,92L160,79L142,98Z" fill="#82c1c2" stroke="#82c1c2" stroke-width="1.51"/><path d="M136,53L109,48L118,71Z" fill="#9dd5c8" stroke="#9dd5c8" stroke-width="1.51"/><path d="M170,76L160,79L161,92Z" fill="#82bdc1" stroke="#82bdc1" stroke-width="1.51"/><path d="M177,95L161,113L173,120Z" fill="#73b5be" stroke="#73b5be" stroke-width="1.51"/><path d="M70,230L88,242L78,218Z" fill="#71b5be" stroke="#71b5be" stroke-width="1.51"/><path d="M80,252L88,242L70,230Z" fill="#6eafbb" stroke="#6eafbb" stroke-width="1.51"/><path d="M190,109L177,95L173,120Z" fill="#71b0bb" stroke="#71b0bb" stroke-width="1.51"/><path d="M77,68L53,71L60,94Z" fill="#b4e2ba" stroke="#b4e2ba" stroke-width="1.51"/><path d="M178,135L194,130L173,120Z" fill="#65abbd" stroke="#65abbd" stroke-width="1.51"/><path d="M200,149L172,160L201,171Z" fill="#4fa0c0" stroke="#4fa0c0" stroke-width="1.51"/><path d="M194,130L190,109L173,120Z" fill="#69abbb" stroke="#69abbb" stroke-width="1.51"/><path d="M38,211L54,235L58,222Z" fill="#85bdc2" stroke="#85bdc2" stroke-width="1.51"/><path d="M211,117L194,91L190,109Z" fill="#6fa7b6" stroke="#6fa7b6" stroke-width="1.51"/><path d="M201,171L172,160L173,176Z" fill="#4ca2c4" stroke="#4ca2c4" stroke-width="1.51"/><path d="M201,171L173,176L200,193Z" fill="#429ac3" stroke="#429ac3" stroke-width="1.51"/><path d="M38,211L29,235L54,235Z" fill="#89bdc3" stroke="#89bdc3" stroke-width="1.51"/><path d="M29,195L18,200L38,211Z" fill="#95cacc" stroke="#95cacc" stroke-width="1.51"/><path d="M8,176L36,172L18,155Z" fill="#a2d7cc" stroke="#a2d7cc" stroke-width="1.51"/><path d="M-3,152L8,176L18,155Z" fill="#a8dacf" stroke="#a8dacf" stroke-width="1.51"/><path d="M160,216L178,215L173,190Z" fill="#3b9bc7" stroke="#3b9bc7" stroke-width="1.51"/><path d="M171,243L178,215L160,216Z" fill="#3594c3" stroke="#3594c3" stroke-width="1.51"/><path d="M33,97L11,112L39,112Z" fill="#b9e3c0" stroke="#b9e3c0" stroke-width="1.51"/><path d="M13,139L-3,152L18,155Z" fill="#acddcd" stroke="#acddcd" stroke-width="1.51"/><path d="M6,90L11,112L33,97Z" fill="#bfe6c2" stroke="#bfe6c2" stroke-width="1.51"/><path d="M77,68L60,48L53,71Z" fill="#bae4bd" stroke="#bae4bd" stroke-width="1.51"/><path d="M93,48L77,68L98,77Z" fill="#abddc0" stroke="#abddc0" stroke-width="1.51"/><path d="M109,48L98,77L118,71Z" fill="#a0d9c3" stroke="#a0d9c3" stroke-width="1.51"/><path d="M200,193L173,176L173,190Z" fill="#409ec6" stroke="#409ec6" stroke-width="1.51"/><path d="M136,53L118,71L134,76Z" fill="#96d1c7" stroke="#96d1c7" stroke-width="1.51"/><path d="M177,95L170,76L161,92Z" fill="#7eb9be" stroke="#7eb9be" stroke-width="1.51"/><path d="M194,91L170,76L177,95Z" fill="#7bb3bc" stroke="#7bb3bc" stroke-width="1.51"/><path d="M132,237L151,240L137,216Z" fill="#41a2ca" stroke="#41a2ca" stroke-width="1.51"/><path d="M135,261L151,240L132,237Z" fill="#3d9cc7" stroke="#3d9cc7" stroke-width="1.51"/><path d="M135,261L132,237L119,241Z" fill="#47a0c4" stroke="#47a0c4" stroke-width="1.51"/><path d="M53,71L39,71L60,94Z" fill="#bae4bc" stroke="#bae4bc" stroke-width="1.51"/><path d="M38,52L39,71L53,71Z" fill="#c3e7c1" stroke="#c3e7c1" stroke-width="1.51"/><path d="M136,53L134,76L149,53Z" fill="#94cecc" stroke="#94cecc" stroke-width="1.51"/><path d="M109,48L93,48L98,77Z" fill="#a7dcc3" stroke="#a7dcc3" stroke-width="1.51"/><path d="M149,53L134,76L160,79Z" fill="#8dc8c8" stroke="#8dc8c8" stroke-width="1.51"/><path d="M88,242L98,255L119,241Z" fill="#5ca9bf" stroke="#5ca9bf" stroke-width="1.51"/><path d="M54,235L80,252L70,230Z" fill="#77b3bb" stroke="#77b3bb" stroke-width="1.51"/><path d="M80,252L98,255L88,242Z" fill="#66aabc" stroke="#66aabc" stroke-width="1.51"/><path d="M11,222L38,211L18,200Z" fill="#94c7cc" stroke="#94c7cc" stroke-width="1.51"/><path d="M-13,135L-3,152L13,139Z" fill="#b1e0ce" stroke="#b1e0ce" stroke-width="1.51"/><path d="M178,215L200,193L173,190Z" fill="#3998c5" stroke="#3998c5" stroke-width="1.51"/><path d="M171,53L149,53L160,79Z" fill="#8dc3c6" stroke="#8dc3c6" stroke-width="1.51"/><path d="M136,53L116,37L109,48Z" fill="#a1d6ca" stroke="#a1d6ca" stroke-width="1.51"/><path d="M190,109L194,91L177,95Z" fill="#75aeb8" stroke="#75aeb8" stroke-width="1.51"/><path d="M161,35L141,38L149,53Z" fill="#95cacd" stroke="#95cacd" stroke-width="1.51"/><path d="M211,117L190,109L194,130Z" fill="#67a4b8" stroke="#67a4b8" stroke-width="1.51"/><path d="M200,149L213,140L194,130Z" fill="#599fba" stroke="#599fba" stroke-width="1.51"/><path d="M217,160L213,140L200,149Z" fill="#5198ba" stroke="#5198ba" stroke-width="1.51"/><path d="M217,160L200,149L201,171Z" fill="#4c98bc" stroke="#4c98bc" stroke-width="1.51"/><path d="M79,27L60,48L77,54Z" fill="#bbe5c0" stroke="#bbe5c0" stroke-width="1.51"/><path d="M77,54L60,48L77,68Z" fill="#b8e3bd" stroke="#b8e3bd" stroke-width="1.51"/><path d="M54,235L52,255L80,252Z" fill="#79b1ba" stroke="#79b1ba" stroke-width="1.51"/><path d="M11,222L29,235L38,211Z" fill="#90c1c8" stroke="#90c1c8" stroke-width="1.51"/><path d="M-5,193L18,200L8,176Z" fill="#9ed2d4" stroke="#9ed2d4" stroke-width="1.51"/><path d="M110,275L112,264L98,255Z" fill="#549fbd" stroke="#549fbd" stroke-width="1.51"/><path d="M98,255L112,264L119,241Z" fill="#54a3bf" stroke="#54a3bf" stroke-width="1.51"/><path d="M110,275L98,255L88,280Z" fill="#5b9fba" stroke="#5b9fba" stroke-width="1.51"/><path d="M213,140L211,117L194,130Z" fill="#5f9eb8" stroke="#5f9eb8" stroke-width="1.51"/><path d="M200,193L214,174L201,171Z" fill="#4093c0" stroke="#4093c0" stroke-width="1.51"/><path d="M11,112L-9,118L13,139Z" fill="#b8e3ca" stroke="#b8e3ca" stroke-width="1.51"/><path d="M13,75L6,90L33,97Z" fill="#c4e8c4" stroke="#c4e8c4" stroke-width="1.51"/><path d="M13,75L33,97L39,71Z" fill="#c3e8c1" stroke="#c3e8c1" stroke-width="1.51"/><path d="M-3,152L-9,177L8,176Z" fill="#a8d9d4" stroke="#a8d9d4" stroke-width="1.51"/><path d="M-22,181L-9,177L-31,153Z" fill="#addbd9" stroke="#addbd9" stroke-width="1.51"/><path d="M109,48L101,29L93,48Z" fill="#abddc7" stroke="#abddc7" stroke-width="1.51"/><path d="M93,48L79,27L77,54Z" fill="#b5e2c2" stroke="#b5e2c2" stroke-width="1.51"/><path d="M141,38L116,37L136,53Z" fill="#9dd3cd" stroke="#9dd3cd" stroke-width="1.51"/><path d="M200,193L214,199L214,174Z" fill="#378fc0" stroke="#378fc0" stroke-width="1.51"/><path d="M178,215L196,217L200,193Z" fill="#3390c0" stroke="#3390c0" stroke-width="1.51"/><path d="M193,239L196,217L178,215Z" fill="#2d8bbe" stroke="#2d8bbe" stroke-width="1.51"/><path d="M171,243L160,216L151,240Z" fill="#3696c4" stroke="#3696c4" stroke-width="1.51"/><path d="M214,174L217,160L201,171Z" fill="#4693bd" stroke="#4693bd" stroke-width="1.51"/><path d="M213,140L235,134L211,117Z" fill="#5c96b2" stroke="#5c96b2" stroke-width="1.51"/><path d="M172,253L171,243L151,240Z" fill="#308fc0" stroke="#308fc0" stroke-width="1.51"/><path d="M112,264L135,261L119,241Z" fill="#4b9ec1" stroke="#4b9ec1" stroke-width="1.51"/><path d="M-9,177L-5,193L8,176Z" fill="#a3d5d6" stroke="#a3d5d6" stroke-width="1.51"/><path d="M29,235L52,255L54,235Z" fill="#83b6bf" stroke="#83b6bf" stroke-width="1.51"/><path d="M-3,218L11,222L18,200Z" fill="#97c8cf" stroke="#97c8cf" stroke-width="1.51"/><path d="M29,235L32,260L52,255Z" fill="#86b4bf" stroke="#86b4bf" stroke-width="1.51"/><path d="M-9,99L-9,118L11,112Z" fill="#c0e6c9" stroke="#c0e6c9" stroke-width="1.51"/><path d="M-9,118L-13,135L13,139Z" fill="#b7e2cd" stroke="#b7e2cd" stroke-width="1.51"/><path d="M6,90L-9,99L11,112Z" fill="#c2e8c6" stroke="#c2e8c6" stroke-width="1.51"/><path d="M15,52L13,75L39,71Z" fill="#cbebc6" stroke="#cbebc6" stroke-width="1.51"/><path d="M135,261L150,258L151,240Z" fill="#3996c4" stroke="#3996c4" stroke-width="1.51"/><path d="M60,48L38,52L53,71Z" fill="#c3e7c1" stroke="#c3e7c1" stroke-width="1.51"/><path d="M55,28L38,52L60,48Z" fill="#c6e9c3" stroke="#c6e9c3" stroke-width="1.51"/><path d="M149,53L141,38L136,53Z" fill="#97cece" stroke="#97cece" stroke-width="1.51"/><path d="M171,53L160,79L170,76Z" fill="#86bdc2" stroke="#86bdc2" stroke-width="1.51"/><path d="M200,72L170,76L194,91Z" fill="#7db0bb" stroke="#7db0bb" stroke-width="1.51"/><path d="M196,60L171,53L170,76Z" fill="#86b7c1" stroke="#86b7c1" stroke-width="1.51"/><path d="M196,217L214,199L200,193Z" fill="#328cbf" stroke="#328cbf" stroke-width="1.51"/><path d="M214,174L232,160L217,160Z" fill="#478eb6" stroke="#478eb6" stroke-width="1.51"/><path d="M217,213L214,199L196,217Z" fill="#2d86bc" stroke="#2d86bc" stroke-width="1.51"/><path d="M116,37L101,29L109,48Z" fill="#a8dbca" stroke="#a8dbca" stroke-width="1.51"/><path d="M119,17L101,29L116,37Z" fill="#a9dbcd" stroke="#a9dbcd" stroke-width="1.51"/><path d="M-8,67L-9,99L6,90Z" fill="#caeacb" stroke="#caeacb" stroke-width="1.51"/><path d="M-27,117L-22,138L-13,135Z" fill="#bde5d2" stroke="#bde5d2" stroke-width="1.51"/><path d="M171,243L193,239L178,215Z" fill="#2c8bbe" stroke="#2c8bbe" stroke-width="1.51"/><path d="M150,258L172,253L151,240Z" fill="#3390c1" stroke="#3390c1" stroke-width="1.51"/><path d="M-3,218L10,233L11,222Z" fill="#95c3ce" stroke="#95c3ce" stroke-width="1.51"/><path d="M11,222L10,233L29,235Z" fill="#91bfc9" stroke="#91bfc9" stroke-width="1.51"/><path d="M135,261L153,274L150,258Z" fill="#3691c2" stroke="#3691c2" stroke-width="1.51"/><path d="M150,258L153,274L172,253Z" fill="#308cbe" stroke="#308cbe" stroke-width="1.51"/><path d="M112,264L129,281L135,261Z" fill="#4698c0" stroke="#4698c0" stroke-width="1.51"/><path d="M88,280L98,255L80,252Z" fill="#64a5b9" stroke="#64a5b9" stroke-width="1.51"/><path d="M-5,193L-3,218L18,200Z" fill="#9bccd3" stroke="#9bccd3" stroke-width="1.51"/><path d="M-23,195L-3,218L-5,193Z" fill="#a0cfd7" stroke="#a0cfd7" stroke-width="1.51"/><path d="M-27,117L-13,135L-9,118Z" fill="#bee6d0" stroke="#bee6d0" stroke-width="1.51"/><path d="M-13,135L-22,138L-3,152Z" fill="#b5e2d2" stroke="#b5e2d2" stroke-width="1.51"/><path d="M-9,177L-22,181L-5,193Z" fill="#a6d6d9" stroke="#a6d6d9" stroke-width="1.51"/><path d="M212,79L200,72L194,91Z" fill="#79a8b8" stroke="#79a8b8" stroke-width="1.51"/><path d="M101,29L79,27L93,48Z" fill="#b2e1c6" stroke="#b2e1c6" stroke-width="1.51"/><path d="M172,253L193,239L171,243Z" fill="#2888bc" stroke="#2888bc" stroke-width="1.51"/><path d="M52,255L70,274L80,252Z" fill="#74aab7" stroke="#74aab7" stroke-width="1.51"/><path d="M58,276L70,274L52,255Z" fill="#77a8b7" stroke="#77a8b7" stroke-width="1.51"/><path d="M-31,153L-9,177L-3,152Z" fill="#afddd6" stroke="#afddd6" stroke-width="1.51"/><path d="M141,38L119,17L116,37Z" fill="#a2d6cf" stroke="#a2d6cf" stroke-width="1.51"/><path d="M171,53L161,35L149,53Z" fill="#91c4c8" stroke="#91c4c8" stroke-width="1.51"/><path d="M174,36L161,35L171,53Z" fill="#8fbfc7" stroke="#8fbfc7" stroke-width="1.51"/><path d="M235,180L232,160L214,174Z" fill="#4289b4" stroke="#4289b4" stroke-width="1.51"/><path d="M217,160L232,160L213,140Z" fill="#4d91b4" stroke="#4d91b4" stroke-width="1.51"/><path d="M211,117L219,93L194,91Z" fill="#6fa2b3" stroke="#6fa2b3" stroke-width="1.51"/><path d="M11,254L32,260L29,235Z" fill="#8ab6c3" stroke="#8ab6c3" stroke-width="1.51"/><path d="M11,254L29,235L10,233Z" fill="#8ebac7" stroke="#8ebac7" stroke-width="1.51"/><path d="M70,274L88,280L80,252Z" fill="#6aa4b7" stroke="#6aa4b7" stroke-width="1.51"/><path d="M238,115L219,93L211,117Z" fill="#6898ad" stroke="#6898ad" stroke-width="1.51"/><path d="M214,58L196,60L200,72Z" fill="#80aaba" stroke="#80aaba" stroke-width="1.51"/><path d="M200,72L196,60L170,76Z" fill="#81b1bd" stroke="#81b1bd" stroke-width="1.51"/><path d="M214,199L235,180L214,174Z" fill="#3a89b9" stroke="#3a89b9" stroke-width="1.51"/><path d="M212,231L217,213L196,217Z" fill="#2883ba" stroke="#2883ba" stroke-width="1.51"/><path d="M219,93L212,79L194,91Z" fill="#75a4b5" stroke="#75a4b5" stroke-width="1.51"/><path d="M38,52L15,52L39,71Z" fill="#ccebc5" stroke="#ccebc5" stroke-width="1.51"/><path d="M13,75L-8,67L6,90Z" fill="#ccebca" stroke="#ccebca" stroke-width="1.51"/><path d="M79,27L55,28L60,48Z" fill="#c1e7c2" stroke="#c1e7c2" stroke-width="1.51"/><path d="M17,29L15,52L38,52Z" fill="#d1edca" stroke="#d1edca" stroke-width="1.51"/><path d="M36,277L58,276L52,255Z" fill="#7caab9" stroke="#7caab9" stroke-width="1.51"/><path d="M70,274L73,302L88,280Z" fill="#699db2" stroke="#699db2" stroke-width="1.51"/><path d="M110,275L129,281L112,264Z" fill="#4c98bd" stroke="#4c98bd" stroke-width="1.51"/><path d="M121,304L129,281L110,275Z" fill="#4892b9" stroke="#4892b9" stroke-width="1.51"/><path d="M-9,253L11,254L10,233Z" fill="#90b9c9" stroke="#90b9c9" stroke-width="1.51"/><path d="M-22,181L-23,195L-5,193Z" fill="#a6d5db" stroke="#a6d5db" stroke-width="1.51"/><path d="M-31,153L-23,195L-22,181Z" fill="#addadc" stroke="#addadc" stroke-width="1.51"/><path d="M172,253L199,259L193,239Z" fill="#2480b8" stroke="#2480b8" stroke-width="1.51"/><path d="M129,281L153,274L135,261Z" fill="#3991c1" stroke="#3991c1" stroke-width="1.51"/><path d="M-22,138L-31,153L-3,152Z" fill="#b5e1d5" stroke="#b5e1d5" stroke-width="1.51"/><path d="M-27,117L-31,153L-22,138Z" fill="#bce4d5" stroke="#bce4d5" stroke-width="1.51"/><path d="M232,160L235,134L213,140Z" fill="#518fb0" stroke="#518fb0" stroke-width="1.51"/><path d="M-9,99L-27,117L-9,118Z" fill="#c3e8ce" stroke="#c3e8ce" stroke-width="1.51"/><path d="M-29,96L-27,117L-9,99Z" fill="#c9eace" stroke="#c9eace" stroke-width="1.51"/><path d="M129,12L119,17L141,38Z" fill="#a2d6d2" stroke="#a2d6d2" stroke-width="1.51"/><path d="M101,29L89,14L79,27Z" fill="#b5e2c9" stroke="#b5e2c9" stroke-width="1.51"/><path d="M79,27L75,12L55,28Z" fill="#c1e7c4" stroke="#c1e7c4" stroke-width="1.51"/><path d="M155,12L129,12L141,38Z" fill="#9dd1d4" stroke="#9dd1d4" stroke-width="1.51"/><path d="M196,60L174,36L171,53Z" fill="#8ab8c3" stroke="#8ab8c3" stroke-width="1.51"/><path d="M232,160L235,180L235,134Z" fill="#4988ad" stroke="#4988ad" stroke-width="1.51"/><path d="M233,200L235,180L214,199Z" fill="#3383b5" stroke="#3383b5" stroke-width="1.51"/><path d="M217,213L233,200L214,199Z" fill="#2e82b6" stroke="#2e82b6" stroke-width="1.51"/><path d="M193,239L212,231L196,217Z" fill="#2783ba" stroke="#2783ba" stroke-width="1.51"/><path d="M199,259L212,231L193,239Z" fill="#207db6" stroke="#207db6" stroke-width="1.51"/><path d="M119,17L89,14L101,29Z" fill="#afdfcc" stroke="#afdfcc" stroke-width="1.51"/><path d="M32,260L36,277L52,255Z" fill="#82aebc" stroke="#82aebc" stroke-width="1.51"/><path d="M-11,233L10,233L-3,218Z" fill="#96c2cf" stroke="#96c2cf" stroke-width="1.51"/><path d="M15,52L-8,67L13,75Z" fill="#d0edcb" stroke="#d0edcb" stroke-width="1.51"/><path d="M236,218L233,200L217,213Z" fill="#2c7bb1" stroke="#2c7bb1" stroke-width="1.51"/><path d="M-34,221L-11,233L-3,218Z" fill="#9bc6d4" stroke="#9bc6d4" stroke-width="1.51"/><path d="M235,134L238,115L211,117Z" fill="#6093ab" stroke="#6093ab" stroke-width="1.51"/><path d="M219,93L234,93L212,79Z" fill="#729bae" stroke="#729bae" stroke-width="1.51"/><path d="M235,180L238,115L235,134Z" fill="#518aa9" stroke="#518aa9" stroke-width="1.51"/><path d="M15,52L-3,50L-8,67Z" fill="#d4eece" stroke="#d4eece" stroke-width="1.51"/><path d="M55,28L36,27L38,52Z" fill="#ccebc7" stroke="#ccebc7" stroke-width="1.51"/><path d="M39,14L36,27L55,28Z" fill="#ceecca" stroke="#ceecca" stroke-width="1.51"/><path d="M114,-5L93,-5L89,14Z" fill="#b5e2cf" stroke="#b5e2cf" stroke-width="1.51"/><path d="M155,12L141,38L161,35Z" fill="#98cacf" stroke="#98cacf" stroke-width="1.51"/><path d="M89,14L75,12L79,27Z" fill="#bce4c8" stroke="#bce4c8" stroke-width="1.51"/><path d="M93,-5L75,12L89,14Z" fill="#bce4cb" stroke="#bce4cb" stroke-width="1.51"/><path d="M-34,79L-29,96L-9,99Z" fill="#cfedd0" stroke="#cfedd0" stroke-width="1.51"/><path d="M-27,117L-34,79L-31,153Z" fill="#c7e9d3" stroke="#c7e9d3" stroke-width="1.51"/><path d="M153,274L174,274L172,253Z" fill="#2a85bb" stroke="#2a85bb" stroke-width="1.51"/><path d="M160,298L174,274L153,274Z" fill="#2882b9" stroke="#2882b9" stroke-width="1.51"/><path d="M15,282L36,277L32,260Z" fill="#85abbe" stroke="#85abbe" stroke-width="1.51"/><path d="M58,276L53,292L70,274Z" fill="#74a3b4" stroke="#74a3b4" stroke-width="1.51"/><path d="M196,60L200,35L174,36Z" fill="#89b3c2" stroke="#89b3c2" stroke-width="1.51"/><path d="M212,79L214,58L200,72Z" fill="#7da6b8" stroke="#7da6b8" stroke-width="1.51"/><path d="M238,115L234,93L219,93Z" fill="#6b95a7" stroke="#6b95a7" stroke-width="1.51"/><path d="M174,274L199,259L172,253Z" fill="#237fb8" stroke="#237fb8" stroke-width="1.51"/><path d="M234,232L236,218L217,213Z" fill="#2777ae" stroke="#2777ae" stroke-width="1.51"/><path d="M240,69L214,58L212,79Z" fill="#799eb1" stroke="#799eb1" stroke-width="1.51"/><path d="M-8,67L-34,79L-9,99Z" fill="#d0edcf" stroke="#d0edcf" stroke-width="1.51"/><path d="M17,29L-3,50L15,52Z" fill="#d5efcf" stroke="#d5efcf" stroke-width="1.51"/><path d="M173,13L155,12L161,35Z" fill="#96c4ce" stroke="#96c4ce" stroke-width="1.51"/><path d="M173,13L161,35L174,36Z" fill="#92c0ca" stroke="#92c0ca" stroke-width="1.51"/><path d="M36,27L17,29L38,52Z" fill="#d1edca" stroke="#d1edca" stroke-width="1.51"/><path d="M39,14L17,29L36,27Z" fill="#d4eecd" stroke="#d4eecd" stroke-width="1.51"/><path d="M234,232L217,213L212,231Z" fill="#2479b2" stroke="#2479b2" stroke-width="1.51"/><path d="M233,200L236,218L235,180Z" fill="#307baf" stroke="#307baf" stroke-width="1.51"/><path d="M235,180L236,218L238,115Z" fill="#4183ad" stroke="#4183ad" stroke-width="1.51"/><path d="M36,277L53,292L58,276Z" fill="#7aa4b7" stroke="#7aa4b7" stroke-width="1.51"/><path d="M88,280L97,304L110,275Z" fill="#5898b6" stroke="#5898b6" stroke-width="1.51"/><path d="M89,14L119,17L114,-5Z" fill="#afdfd0" stroke="#afdfd0" stroke-width="1.51"/><path d="M76,-12L49,10L75,12Z" fill="#c7e9c9" stroke="#c7e9c9" stroke-width="1.51"/><path d="M75,12L49,10L55,28Z" fill="#c7e9c8" stroke="#c7e9c8" stroke-width="1.51"/><path d="M49,10L39,14L55,28Z" fill="#cdeccb" stroke="#cdeccb" stroke-width="1.51"/><path d="M-32,236L-9,253L-11,233Z" fill="#98bed1" stroke="#98bed1" stroke-width="1.51"/><path d="M-11,233L-9,253L10,233Z" fill="#94bdcd" stroke="#94bdcd" stroke-width="1.51"/><path d="M11,254L15,282L32,260Z" fill="#89b0c2" stroke="#89b0c2" stroke-width="1.51"/><path d="M36,277L32,300L53,292Z" fill="#7da2b5" stroke="#7da2b5" stroke-width="1.51"/><path d="M214,58L200,35L196,60Z" fill="#84abbc" stroke="#84abbc" stroke-width="1.51"/><path d="M73,302L97,304L88,280Z" fill="#6197af" stroke="#6197af" stroke-width="1.51"/><path d="M129,281L139,301L153,274Z" fill="#358cbf" stroke="#358cbf" stroke-width="1.51"/><path d="M-23,195L-34,221L-3,218Z" fill="#a1ccd8" stroke="#a1ccd8" stroke-width="1.51"/><path d="M-31,153L-34,221L-23,195Z" fill="#aad7df" stroke="#aad7df" stroke-width="1.51"/><path d="M-34,79L-34,221L-31,153Z" fill="#b8e2d9" stroke="#b8e2d9" stroke-width="1.51"/><path d="M53,292L73,302L70,274Z" fill="#709eb0" stroke="#709eb0" stroke-width="1.51"/><path d="M-29,96L-34,79L-27,117Z" fill="#ceecd1" stroke="#ceecd1" stroke-width="1.51"/><path d="M-28,58L-34,79L-8,67Z" fill="#d8f0d4" stroke="#d8f0d4" stroke-width="1.51"/><path d="M-28,58L-8,67L-3,50Z" fill="#d8f0d2" stroke="#d8f0d2" stroke-width="1.51"/><path d="M97,304L121,304L110,275Z" fill="#4f92b4" stroke="#4f92b4" stroke-width="1.51"/><path d="M235,258L234,232L212,231Z" fill="#1d70ab" stroke="#1d70ab" stroke-width="1.51"/><path d="M121,304L139,301L129,281Z" fill="#3e8bb8" stroke="#3e8bb8" stroke-width="1.51"/><path d="M200,275L210,262L199,259Z" fill="#1873b2" stroke="#1873b2" stroke-width="1.51"/><path d="M199,259L210,262L212,231Z" fill="#1c77b4" stroke="#1c77b4" stroke-width="1.51"/><path d="M200,275L199,259L174,274Z" fill="#1c78b4" stroke="#1c78b4" stroke-width="1.51"/><path d="M200,35L173,13L174,36Z" fill="#8eb9c7" stroke="#8eb9c7" stroke-width="1.51"/><path d="M114,-5L129,12L133,-14Z" fill="#aad9d7" stroke="#aad9d7" stroke-width="1.51"/><path d="M114,-5L119,17L129,12Z" fill="#a9dad3" stroke="#a9dad3" stroke-width="1.51"/><path d="M155,-2L129,12L155,12Z" fill="#9ecfd6" stroke="#9ecfd6" stroke-width="1.51"/><path d="M51,313L69,317L73,302Z" fill="#6d94a6" stroke="#6d94a6" stroke-width="1.51"/><path d="M-4,279L15,282L11,254Z" fill="#8baec3" stroke="#8baec3" stroke-width="1.51"/><path d="M210,262L235,258L212,231Z" fill="#1970ae" stroke="#1970ae" stroke-width="1.51"/><path d="M194,297L200,275L174,274Z" fill="#1874b2" stroke="#1874b2" stroke-width="1.51"/><path d="M151,319L160,298L139,301Z" fill="#2f7db1" stroke="#2f7db1" stroke-width="1.51"/><path d="M139,301L160,298L153,274Z" fill="#2f84b8" stroke="#2f84b8" stroke-width="1.51"/><path d="M-9,253L-4,279L11,254Z" fill="#8eb3c8" stroke="#8eb3c8" stroke-width="1.51"/><path d="M-34,221L-32,236L-11,233Z" fill="#9dc4d5" stroke="#9dc4d5" stroke-width="1.51"/><path d="M214,58L221,26L200,35Z" fill="#85a7bd" stroke="#85a7bd" stroke-width="1.51"/><path d="M234,93L240,69L212,79Z" fill="#7398ab" stroke="#7398ab" stroke-width="1.51"/><path d="M238,115L240,69L234,93Z" fill="#6d91a4" stroke="#6d91a4" stroke-width="1.51"/><path d="M242,318L240,69L238,115Z" fill="#4382aa" stroke="#4382aa" stroke-width="1.51"/><path d="M-14,30L-3,50L17,29Z" fill="#daf1d3" stroke="#daf1d3" stroke-width="1.51"/><path d="M-28,34L-28,58L-3,50Z" fill="#ddf2d6" stroke="#ddf2d6" stroke-width="1.51"/><path d="M173,13L155,-2L155,12Z" fill="#99c7d2" stroke="#99c7d2" stroke-width="1.51"/><path d="M176,-6L155,-2L173,13Z" fill="#98c3d1" stroke="#98c3d1" stroke-width="1.51"/><path d="M97,304L119,315L121,304Z" fill="#4b8aae" stroke="#4b8aae" stroke-width="1.51"/><path d="M121,304L129,322L139,301Z" fill="#3d84b1" stroke="#3d84b1" stroke-width="1.51"/><path d="M73,302L88,312L97,304Z" fill="#5f92aa" stroke="#5f92aa" stroke-width="1.51"/><path d="M69,317L88,312L73,302Z" fill="#6691a6" stroke="#6691a6" stroke-width="1.51"/><path d="M93,-5L76,-12L75,12Z" fill="#c0e6cc" stroke="#c0e6cc" stroke-width="1.51"/><path d="M49,10L35,-5L39,14Z" fill="#d3eecf" stroke="#d3eecf" stroke-width="1.51"/><path d="M-5,16L-14,30L17,29Z" fill="#dcf2d6" stroke="#dcf2d6" stroke-width="1.51"/><path d="M75,-30L76,-12L97,-34Z" fill="#c5e9d2" stroke="#c5e9d2" stroke-width="1.51"/><path d="M118,-24L93,-5L114,-5Z" fill="#b4e1d4" stroke="#b4e1d4" stroke-width="1.51"/><path d="M15,282L32,300L36,277Z" fill="#83a5ba" stroke="#83a5ba" stroke-width="1.51"/><path d="M6,301L32,300L15,282Z" fill="#84a3b9" stroke="#84a3b9" stroke-width="1.51"/><path d="M88,312L119,315L97,304Z" fill="#538cab" stroke="#538cab" stroke-width="1.51"/><path d="M-30,263L-4,279L-9,253Z" fill="#92b3cb" stroke="#92b3cb" stroke-width="1.51"/><path d="M155,-2L133,-14L129,12Z" fill="#a4d4d9" stroke="#a4d4d9" stroke-width="1.51"/><path d="M10,7L17,29L39,14Z" fill="#d8f0d1" stroke="#d8f0d1" stroke-width="1.51"/><path d="M240,69L237,50L214,58Z" fill="#7c9aae" stroke="#7c9aae" stroke-width="1.51"/><path d="M200,35L194,7L173,13Z" fill="#8fb6c8" stroke="#8fb6c8" stroke-width="1.51"/><path d="M194,297L217,275L200,275Z" fill="#106cae" stroke="#106cae" stroke-width="1.51"/><path d="M200,275L217,275L210,262Z" fill="#126eaf" stroke="#126eaf" stroke-width="1.51"/><path d="M179,302L174,274L160,298Z" fill="#2279b2" stroke="#2279b2" stroke-width="1.51"/><path d="M171,320L179,302L160,298Z" fill="#2372ac" stroke="#2372ac" stroke-width="1.51"/><path d="M88,312L129,322L119,315Z" fill="#4b86aa" stroke="#4b86aa" stroke-width="1.51"/><path d="M51,313L73,302L53,292Z" fill="#7299ab" stroke="#7299ab" stroke-width="1.51"/><path d="M49,-14L35,-5L49,10Z" fill="#d4eed0" stroke="#d4eed0" stroke-width="1.51"/><path d="M27,315L51,313L32,300Z" fill="#7b99ad" stroke="#7b99ad" stroke-width="1.51"/><path d="M32,300L51,313L53,292Z" fill="#789bae" stroke="#789bae" stroke-width="1.51"/><path d="M161,-28L132,-32L133,-14Z" fill="#a8d5de" stroke="#a8d5de" stroke-width="1.51"/><path d="M221,19L194,7L200,35Z" fill="#8badc4" stroke="#8badc4" stroke-width="1.51"/><path d="M236,218L242,318L238,115Z" fill="#2872a9" stroke="#2872a9" stroke-width="1.51"/><path d="M234,232L235,258L236,218Z" fill="#1e6da7" stroke="#1e6da7" stroke-width="1.51"/><path d="M217,275L235,258L210,262Z" fill="#136aaa" stroke="#136aaa" stroke-width="1.51"/><path d="M35,-5L10,7L39,14Z" fill="#d8f0d2" stroke="#d8f0d2" stroke-width="1.51"/><path d="M237,50L221,26L214,58Z" fill="#81a0b4" stroke="#81a0b4" stroke-width="1.51"/><path d="M10,7L-5,16L17,29Z" fill="#dcf1d6" stroke="#dcf1d6" stroke-width="1.51"/><path d="M217,275L236,279L235,258Z" fill="#1163a4" stroke="#1163a4" stroke-width="1.51"/><path d="M179,302L194,297L174,274Z" fill="#1b73af" stroke="#1b73af" stroke-width="1.51"/><path d="M197,-7L176,-6L194,7Z" fill="#93b8cd" stroke="#93b8cd" stroke-width="1.51"/><path d="M194,7L176,-6L173,13Z" fill="#93bccd" stroke="#93bccd" stroke-width="1.51"/><path d="M76,-12L49,-14L49,10Z" fill="#ceeccd" stroke="#ceeccd" stroke-width="1.51"/><path d="M35,-5L17,-12L10,7Z" fill="#ddf2d6" stroke="#ddf2d6" stroke-width="1.51"/><path d="M50,-28L49,-14L76,-12Z" fill="#d0edd0" stroke="#d0edd0" stroke-width="1.51"/><path d="M119,315L129,322L121,304Z" fill="#4384ad" stroke="#4384ad" stroke-width="1.51"/><path d="M179,302L202,318L194,297Z" fill="#1768a6" stroke="#1768a6" stroke-width="1.51"/><path d="M69,317L129,322L88,312Z" fill="#578aa7" stroke="#578aa7" stroke-width="1.51"/><path d="M-32,236L-30,263L-9,253Z" fill="#98bbd1" stroke="#98bbd1" stroke-width="1.51"/><path d="M-4,279L6,301L15,282Z" fill="#89a7c0" stroke="#89a7c0" stroke-width="1.51"/><path d="M-33,312L-30,263L-32,236Z" fill="#97b4cf" stroke="#97b4cf" stroke-width="1.51"/><path d="M-28,58L-28,34L-34,79Z" fill="#def2d8" stroke="#def2d8" stroke-width="1.51"/><path d="M-14,30L-28,34L-3,50Z" fill="#def2d8" stroke="#def2d8" stroke-width="1.51"/><path d="M-31,16L-28,34L-14,30Z" fill="#e3f5dd" stroke="#e3f5dd" stroke-width="1.51"/><path d="M129,322L151,319L139,301Z" fill="#347fb1" stroke="#347fb1" stroke-width="1.51"/><path d="M133,-14L118,-24L114,-5Z" fill="#aedbd8" stroke="#aedbd8" stroke-width="1.51"/><path d="M132,-32L118,-24L133,-14Z" fill="#aedadc" stroke="#aedadc" stroke-width="1.51"/><path d="M232,28L221,19L221,26Z" fill="#85a1b8" stroke="#85a1b8" stroke-width="1.51"/><path d="M221,26L221,19L200,35Z" fill="#87a8bf" stroke="#87a8bf" stroke-width="1.51"/><path d="M237,50L232,28L221,26Z" fill="#819cb3" stroke="#819cb3" stroke-width="1.51"/><path d="M-14,292L6,301L-4,279Z" fill="#8aa7c1" stroke="#8aa7c1" stroke-width="1.51"/><path d="M6,301L27,315L32,300Z" fill="#819db3" stroke="#819db3" stroke-width="1.51"/><path d="M51,313L27,315L69,317Z" fill="#7594a7" stroke="#7594a7" stroke-width="1.51"/><path d="M69,317L8,320L129,322Z" fill="#6a8fa0" stroke="#6a8fa0" stroke-width="1.51"/><path d="M-30,263L-28,278L-4,279Z" fill="#93b1cc" stroke="#93b1cc" stroke-width="1.51"/><path d="M129,322L171,320L151,319Z" fill="#2e76ab" stroke="#2e76ab" stroke-width="1.51"/><path d="M151,319L171,320L160,298Z" fill="#2874ab" stroke="#2874ab" stroke-width="1.51"/><path d="M223,300L236,279L217,275Z" fill="#095fa3" stroke="#095fa3" stroke-width="1.51"/><path d="M37,-23L17,-12L35,-5Z" fill="#ddf2d6" stroke="#ddf2d6" stroke-width="1.51"/><path d="M97,-34L76,-12L93,-5Z" fill="#c0e6d1" stroke="#c0e6d1" stroke-width="1.51"/><path d="M6,301L8,320L27,315Z" fill="#829ab2" stroke="#829ab2" stroke-width="1.51"/><path d="M-28,278L-14,292L-4,279Z" fill="#8facc8" stroke="#8facc8" stroke-width="1.51"/><path d="M-5,16L-31,16L-14,30Z" fill="#e2f4dc" stroke="#e2f4dc" stroke-width="1.51"/><path d="M10,7L-1,-3L-5,16Z" fill="#e0f3da" stroke="#e0f3da" stroke-width="1.51"/><path d="M37,-23L35,-5L49,-14Z" fill="#d8f0d3" stroke="#d8f0d3" stroke-width="1.51"/><path d="M210,-10L197,-7L194,7Z" fill="#91b2ca" stroke="#91b2ca" stroke-width="1.51"/><path d="M161,-28L133,-14L155,-2Z" fill="#a3cfda" stroke="#a3cfda" stroke-width="1.51"/><path d="M210,-10L194,7L221,19Z" fill="#8cadc6" stroke="#8cadc6" stroke-width="1.51"/><path d="M132,-32L97,-34L118,-24Z" fill="#b5dfda" stroke="#b5dfda" stroke-width="1.51"/><path d="M118,-24L97,-34L93,-5Z" fill="#b9e3d5" stroke="#b9e3d5" stroke-width="1.51"/><path d="M161,-28L155,-2L176,-6Z" fill="#9dc7d5" stroke="#9dc7d5" stroke-width="1.51"/><path d="M235,258L242,318L236,218Z" fill="#1460a0" stroke="#1460a0" stroke-width="1.51"/><path d="M223,300L217,275L194,297Z" fill="#0965a8" stroke="#0965a8" stroke-width="1.51"/><path d="M17,-12L-1,-3L10,7Z" fill="#e0f3da" stroke="#e0f3da" stroke-width="1.51"/><path d="M17,-12L14,-24L-1,-3Z" fill="#e2f4dc" stroke="#e2f4dc" stroke-width="1.51"/><path d="M50,-28L37,-23L49,-14Z" fill="#d8f0d4" stroke="#d8f0d4" stroke-width="1.51"/><path d="M75,-30L50,-28L76,-12Z" fill="#cdeccf" stroke="#cdeccf" stroke-width="1.51"/><path d="M97,-34L50,-28L75,-30Z" fill="#cbebd2" stroke="#cbebd2" stroke-width="1.51"/><path d="M181,-25L161,-28L176,-6Z" fill="#9cc3d4" stroke="#9cc3d4" stroke-width="1.51"/><path d="M-30,-4L-31,16L-5,16Z" fill="#e6f6e0" stroke="#e6f6e0" stroke-width="1.51"/><path d="M-28,34L-31,16L-34,79Z" fill="#e2f4db" stroke="#e2f4db" stroke-width="1.51"/><path d="M202,318L223,300L194,297Z" fill="#0e61a3" stroke="#0e61a3" stroke-width="1.51"/><path d="M197,-7L181,-25L176,-6Z" fill="#96bbd0" stroke="#96bbd0" stroke-width="1.51"/><path d="M199,-31L181,-25L197,-7Z" fill="#97b8d0" stroke="#97b8d0" stroke-width="1.51"/><path d="M232,-5L210,-10L221,19Z" fill="#8aa5c0" stroke="#8aa5c0" stroke-width="1.51"/><path d="M-11,313L8,320L6,301Z" fill="#859cb6" stroke="#859cb6" stroke-width="1.51"/><path d="M27,315L8,320L69,317Z" fill="#7b96aa" stroke="#7b96aa" stroke-width="1.51"/><path d="M-11,313L6,301L-14,292Z" fill="#89a1bd" stroke="#89a1bd" stroke-width="1.51"/><path d="M171,320L202,318L179,302Z" fill="#1b68a4" stroke="#1b68a4" stroke-width="1.51"/><path d="M-1,-3L-30,-4L-5,16Z" fill="#e4f5df" stroke="#e4f5df" stroke-width="1.51"/><path d="M37,-23L14,-24L17,-12Z" fill="#e0f3da" stroke="#e0f3da" stroke-width="1.51"/><path d="M50,-28L14,-24L37,-23Z" fill="#dff2d7" stroke="#dff2d7" stroke-width="1.51"/><path d="M-8,-25L14,-24L-26,-29Z" fill="#eaf7e4" stroke="#eaf7e4" stroke-width="1.51"/><path d="M-33,312L-28,278L-30,263Z" fill="#93adcc" stroke="#93adcc" stroke-width="1.51"/><path d="M-33,312L-29,297L-28,278Z" fill="#91a7c6" stroke="#91a7c6" stroke-width="1.51"/><path d="M-28,278L-29,297L-14,292Z" fill="#91aac8" stroke="#91aac8" stroke-width="1.51"/><path d="M-29,297L-11,313L-14,292Z" fill="#8ca3c0" stroke="#8ca3c0" stroke-width="1.51"/><path d="M242,318L243,10L240,69Z" fill="#5788a5" stroke="#5788a5" stroke-width="1.51"/><path d="M240,69L243,10L237,50Z" fill="#7e96ab" stroke="#7e96ab" stroke-width="1.51"/><path d="M237,50L243,10L232,28Z" fill="#8198b0" stroke="#8198b0" stroke-width="1.51"/><path d="M232,28L243,10L221,19Z" fill="#849db6" stroke="#849db6" stroke-width="1.51"/><path d="M242,318L238,299L223,300Z" fill="#0a5193" stroke="#0a5193" stroke-width="1.51"/><path d="M223,300L238,299L236,279Z" fill="#09589b" stroke="#09589b" stroke-width="1.51"/><path d="M236,279L242,318L235,258Z" fill="#09589b" stroke="#09589b" stroke-width="1.51"/><path d="M243,10L232,-5L221,19Z" fill="#869eb8" stroke="#869eb8" stroke-width="1.51"/><path d="M210,-10L199,-31L197,-7Z" fill="#93b2cc" stroke="#93b2cc" stroke-width="1.51"/><path d="M-8,-25L-30,-4L-1,-3Z" fill="#e8f7e2" stroke="#e8f7e2" stroke-width="1.51"/><path d="M214,-33L199,-31L210,-10Z" fill="#94afcd" stroke="#94afcd" stroke-width="1.51"/><path d="M181,-25L199,-31L161,-28Z" fill="#9bbfd4" stroke="#9bbfd4" stroke-width="1.51"/><path d="M161,-28L199,-31L132,-32Z" fill="#a1c9d9" stroke="#a1c9d9" stroke-width="1.51"/><path d="M132,-32L214,-33L97,-34Z" fill="#a8d2df" stroke="#a8d2df" stroke-width="1.51"/><path d="M14,-24L-8,-25L-1,-3Z" fill="#e6f5e0" stroke="#e6f5e0" stroke-width="1.51"/><path d="M-26,-29L14,-24L50,-28Z" fill="#e5f5de" stroke="#e5f5de" stroke-width="1.51"/><path d="M202,318L222,323L223,300Z" fill="#0a589b" stroke="#0a589b" stroke-width="1.51"/><path d="M171,320L222,323L202,318Z" fill="#135e9e" stroke="#135e9e" stroke-width="1.51"/><path d="M129,322L222,323L171,320Z" fill="#2069a3" stroke="#2069a3" stroke-width="1.51"/><path d="M-29,297L-33,312L-11,313Z" fill="#8da1bf" stroke="#8da1bf" stroke-width="1.51"/><path d="M-11,313L-33,312L8,320Z" fill="#889cb8" stroke="#889cb8" stroke-width="1.51"/><path d="M-34,221L-33,312L-32,236Z" fill="#9abad2" stroke="#9abad2" stroke-width="1.51"/><path d="M232,-5L214,-33L210,-10Z" fill="#8fa8c6" stroke="#8fa8c6" stroke-width="1.51"/><path d="M199,-31L214,-33L132,-32Z" fill="#9cbfd4" stroke="#9cbfd4" stroke-width="1.51"/><path d="M235,-33L214,-33L232,-5Z" fill="#8fa4c2" stroke="#8fa4c2" stroke-width="1.51"/><path d="M222,323L242,318L223,300Z" fill="#0a5193" stroke="#0a5193" stroke-width="1.51"/><path d="M238,299L242,318L236,279Z" fill="#095294" stroke="#095294" stroke-width="1.51"/><path d="M-8,-25L-26,-29L-30,-4Z" fill="#eef8e6" stroke="#eef8e6" stroke-width="1.51"/><path d="M97,-34L-26,-29L50,-28Z" fill="#dcf2d7" stroke="#dcf2d7" stroke-width="1.51"/><path d="M243,10L235,-33L232,-5Z" fill="#899cb9" stroke="#899cb9" stroke-width="1.51"/><path d="M214,-33L235,-33L97,-34Z" fill="#9cbfd5" stroke="#9cbfd5" stroke-width="1.51"/></svg>